<mxfile host="app.diagrams.net" modified="2021-01-29T06:35:12.272Z" agent="5.0 (Windows NT 10.0; Win64; x64) AppleWebKit/537.36 (KHTML, like Gecko) Chrome/88.0.4324.104 Safari/537.36" etag="1-HIVf1RCuCgfIGP9aTJ" version="14.2.7" type="github">
  <diagram id="I9_dffHLye_pf-9wNx5H" name="第 1 页">
    <mxGraphModel dx="1874" dy="828" grid="1" gridSize="10" guides="1" tooltips="1" connect="1" arrows="1" fold="1" page="1" pageScale="1" pageWidth="827" pageHeight="1169" math="0" shadow="0">
      <root>
        <mxCell id="0" />
        <mxCell id="1" parent="0" />
        <mxCell id="igD-GckAJ0knDN7GTUAc-8" style="edgeStyle=orthogonalEdgeStyle;rounded=0;orthogonalLoop=1;jettySize=auto;html=1;exitX=0.5;exitY=1;exitDx=0;exitDy=0;entryX=0.5;entryY=0;entryDx=0;entryDy=0;" edge="1" parent="1" source="igD-GckAJ0knDN7GTUAc-1" target="igD-GckAJ0knDN7GTUAc-2">
          <mxGeometry relative="1" as="geometry" />
        </mxCell>
        <mxCell id="igD-GckAJ0knDN7GTUAc-1" value="申请用车" style="rounded=1;whiteSpace=wrap;html=1;" vertex="1" parent="1">
          <mxGeometry x="320" y="170" width="120" height="30" as="geometry" />
        </mxCell>
        <mxCell id="igD-GckAJ0knDN7GTUAc-2" value="领导是否审批" style="rhombus;whiteSpace=wrap;html=1;" vertex="1" parent="1">
          <mxGeometry x="305" y="250" width="150" height="120" as="geometry" />
        </mxCell>
        <mxCell id="igD-GckAJ0knDN7GTUAc-3" value="" style="endArrow=classic;html=1;exitX=0;exitY=0.5;exitDx=0;exitDy=0;" edge="1" parent="1" source="igD-GckAJ0knDN7GTUAc-2">
          <mxGeometry width="50" height="50" relative="1" as="geometry">
            <mxPoint x="390" y="430" as="sourcePoint" />
            <mxPoint x="200" y="400" as="targetPoint" />
            <Array as="points">
              <mxPoint x="200" y="310" />
            </Array>
          </mxGeometry>
        </mxCell>
        <mxCell id="igD-GckAJ0knDN7GTUAc-4" value="" style="endArrow=classic;html=1;exitX=1;exitY=0.5;exitDx=0;exitDy=0;" edge="1" parent="1" source="igD-GckAJ0knDN7GTUAc-2">
          <mxGeometry width="50" height="50" relative="1" as="geometry">
            <mxPoint x="315" y="320" as="sourcePoint" />
            <mxPoint x="540" y="400" as="targetPoint" />
            <Array as="points">
              <mxPoint x="540" y="310" />
            </Array>
          </mxGeometry>
        </mxCell>
        <mxCell id="igD-GckAJ0knDN7GTUAc-5" value="待审批" style="text;html=1;align=center;verticalAlign=middle;resizable=0;points=[];autosize=1;" vertex="1" parent="1">
          <mxGeometry x="230" y="290" width="50" height="20" as="geometry" />
        </mxCell>
        <mxCell id="igD-GckAJ0knDN7GTUAc-6" value="审批" style="text;html=1;align=center;verticalAlign=middle;resizable=0;points=[];autosize=1;" vertex="1" parent="1">
          <mxGeometry x="475" y="290" width="40" height="20" as="geometry" />
        </mxCell>
        <mxCell id="igD-GckAJ0knDN7GTUAc-9" value="&lt;div style=&quot;text-align: justify&quot;&gt;&lt;div style=&quot;text-align: left&quot;&gt;&lt;font color=&quot;#333333&quot; face=&quot;-apple-system, BlinkMacSystemFont, Apple Color Emoji, Segoe UI Emoji, Segoe UI Symbol, Segoe UI, PingFang SC, Hiragino Sans GB, Microsoft YaHei, Helvetica Neue, Helvetica, Arial, sans-serif&quot;&gt;&lt;span style=&quot;font-size: 16px ; background-color: rgb(255 , 255 , 255)&quot;&gt;不会调用OA接口&lt;/span&gt;&lt;/font&gt;&lt;/div&gt;&lt;/div&gt;&lt;div style=&quot;text-align: justify&quot;&gt;&lt;/div&gt;" style="rounded=1;whiteSpace=wrap;html=1;" vertex="1" parent="1">
          <mxGeometry x="140" y="400" width="140" height="130" as="geometry" />
        </mxCell>
        <mxCell id="igD-GckAJ0knDN7GTUAc-10" value="" style="rounded=1;whiteSpace=wrap;html=1;" vertex="1" parent="1">
          <mxGeometry x="590" y="490" width="220" height="490" as="geometry" />
        </mxCell>
        <mxCell id="igD-GckAJ0knDN7GTUAc-12" value="&lt;div style=&quot;text-align: justify&quot;&gt;&lt;div style=&quot;text-align: left&quot;&gt;&lt;font color=&quot;#333333&quot; face=&quot;-apple-system, BlinkMacSystemFont, Apple Color Emoji, Segoe UI Emoji, Segoe UI Symbol, Segoe UI, PingFang SC, Hiragino Sans GB, Microsoft YaHei, Helvetica Neue, Helvetica, Arial, sans-serif&quot;&gt;&lt;span style=&quot;font-size: 16px ; background-color: rgb(255 , 255 , 255)&quot;&gt;car前台系统&lt;/span&gt;&lt;/font&gt;&lt;/div&gt;&lt;/div&gt;&lt;div style=&quot;text-align: justify&quot;&gt;&lt;/div&gt;" style="rounded=1;whiteSpace=wrap;html=1;" vertex="1" parent="1">
          <mxGeometry x="140" y="400" width="140" height="30" as="geometry" />
        </mxCell>
        <mxCell id="igD-GckAJ0knDN7GTUAc-13" value="&lt;div style=&quot;text-align: justify&quot;&gt;&lt;div style=&quot;text-align: left&quot;&gt;&lt;span style=&quot;color: rgb(51 , 51 , 51) ; font-family: , &amp;#34;blinkmacsystemfont&amp;#34; , &amp;#34;apple color emoji&amp;#34; , &amp;#34;segoe ui emoji&amp;#34; , &amp;#34;segoe ui symbol&amp;#34; , &amp;#34;segoe ui&amp;#34; , &amp;#34;pingfang sc&amp;#34; , &amp;#34;hiragino sans gb&amp;#34; , &amp;#34;microsoft yahei&amp;#34; , &amp;#34;helvetica neue&amp;#34; , &amp;#34;helvetica&amp;#34; , &amp;#34;arial&amp;#34; , sans-serif ; font-size: 16px ; background-color: rgb(255 , 255 , 255)&quot;&gt;car前台系统&lt;/span&gt;&lt;br&gt;&lt;/div&gt;&lt;/div&gt;&lt;div style=&quot;text-align: justify&quot;&gt;&lt;/div&gt;" style="rounded=1;whiteSpace=wrap;html=1;" vertex="1" parent="1">
          <mxGeometry x="590" y="490" width="220" height="30" as="geometry" />
        </mxCell>
        <mxCell id="igD-GckAJ0knDN7GTUAc-14" value="&lt;div style=&quot;text-align: justify&quot;&gt;&lt;div style=&quot;text-align: left&quot;&gt;&lt;font color=&quot;#333333&quot; face=&quot;-apple-system, BlinkMacSystemFont, Apple Color Emoji, Segoe UI Emoji, Segoe UI Symbol, Segoe UI, PingFang SC, Hiragino Sans GB, Microsoft YaHei, Helvetica Neue, Helvetica, Arial, sans-serif&quot;&gt;&lt;span style=&quot;font-size: 16px ; background-color: rgb(255 , 255 , 255)&quot;&gt;OA接口&lt;/span&gt;&lt;/font&gt;&lt;/div&gt;&lt;/div&gt;&lt;div style=&quot;text-align: justify&quot;&gt;&lt;/div&gt;" style="rounded=1;whiteSpace=wrap;html=1;" vertex="1" parent="1">
          <mxGeometry x="590" y="570" width="220" height="30" as="geometry" />
        </mxCell>
        <mxCell id="igD-GckAJ0knDN7GTUAc-15" value="&lt;div style=&quot;text-align: justify&quot;&gt;&lt;div style=&quot;text-align: left&quot;&gt;&lt;span style=&quot;color: rgb(51 , 51 , 51) ; font-family: , &amp;#34;blinkmacsystemfont&amp;#34; , &amp;#34;apple color emoji&amp;#34; , &amp;#34;segoe ui emoji&amp;#34; , &amp;#34;segoe ui symbol&amp;#34; , &amp;#34;segoe ui&amp;#34; , &amp;#34;pingfang sc&amp;#34; , &amp;#34;hiragino sans gb&amp;#34; , &amp;#34;microsoft yahei&amp;#34; , &amp;#34;helvetica neue&amp;#34; , &amp;#34;helvetica&amp;#34; , &amp;#34;arial&amp;#34; , sans-serif ; font-size: 16px ; background-color: rgb(255 , 255 , 255)&quot;&gt;正常调用OA接口&lt;/span&gt;&lt;br&gt;&lt;/div&gt;&lt;/div&gt;&lt;div style=&quot;text-align: justify&quot;&gt;&lt;/div&gt;" style="rounded=1;whiteSpace=wrap;html=1;" vertex="1" parent="1">
          <mxGeometry x="590" y="520" width="220" height="50" as="geometry" />
        </mxCell>
        <mxCell id="igD-GckAJ0knDN7GTUAc-16" value="&lt;div style=&quot;text-align: justify&quot;&gt;&lt;div style=&quot;text-align: left&quot;&gt;&lt;span style=&quot;color: rgb(51 , 51 , 51) ; font-family: , &amp;#34;blinkmacsystemfont&amp;#34; , &amp;#34;apple color emoji&amp;#34; , &amp;#34;segoe ui emoji&amp;#34; , &amp;#34;segoe ui symbol&amp;#34; , &amp;#34;segoe ui&amp;#34; , &amp;#34;pingfang sc&amp;#34; , &amp;#34;hiragino sans gb&amp;#34; , &amp;#34;microsoft yahei&amp;#34; , &amp;#34;helvetica neue&amp;#34; , &amp;#34;helvetica&amp;#34; , &amp;#34;arial&amp;#34; , sans-serif ; font-size: 16px ; background-color: rgb(255 , 255 , 255)&quot;&gt;&lt;br&gt;&lt;/span&gt;&lt;/div&gt;&lt;div style=&quot;text-align: left&quot;&gt;&lt;span style=&quot;color: rgb(51 , 51 , 51) ; font-family: , &amp;#34;blinkmacsystemfont&amp;#34; , &amp;#34;apple color emoji&amp;#34; , &amp;#34;segoe ui emoji&amp;#34; , &amp;#34;segoe ui symbol&amp;#34; , &amp;#34;segoe ui&amp;#34; , &amp;#34;pingfang sc&amp;#34; , &amp;#34;hiragino sans gb&amp;#34; , &amp;#34;microsoft yahei&amp;#34; , &amp;#34;helvetica neue&amp;#34; , &amp;#34;helvetica&amp;#34; , &amp;#34;arial&amp;#34; , sans-serif ; font-size: 16px ; background-color: rgb(255 , 255 , 255)&quot;&gt;根据任务状态去做相应处理：&lt;/span&gt;&lt;br&gt;&lt;/div&gt;&lt;div style=&quot;text-align: left&quot;&gt;&lt;span style=&quot;color: rgb(51 , 51 , 51) ; font-family: , &amp;#34;blinkmacsystemfont&amp;#34; , &amp;#34;apple color emoji&amp;#34; , &amp;#34;segoe ui emoji&amp;#34; , &amp;#34;segoe ui symbol&amp;#34; , &amp;#34;segoe ui&amp;#34; , &amp;#34;pingfang sc&amp;#34; , &amp;#34;hiragino sans gb&amp;#34; , &amp;#34;microsoft yahei&amp;#34; , &amp;#34;helvetica neue&amp;#34; , &amp;#34;helvetica&amp;#34; , &amp;#34;arial&amp;#34; , sans-serif ; font-size: 16px ; background-color: rgb(255 , 255 , 255)&quot;&gt;第一：司机接收任务status=2&amp;amp;&amp;amp;&lt;/span&gt;&lt;span style=&quot;text-align: justify ; font-size: 16px&quot;&gt;&lt;font color=&quot;#333333&quot;&gt;is_special=1&lt;/font&gt;&lt;/span&gt;&lt;/div&gt;&lt;div style=&quot;text-align: left&quot;&gt;&lt;span style=&quot;color: rgb(51 , 51 , 51) ; font-size: 16px ; background-color: rgb(255 , 255 , 255)&quot;&gt;oa：TODO(处理左边的第一&lt;/span&gt;&lt;span style=&quot;color: rgb(51 , 51 , 51) ; font-size: 16px ; text-align: justify ; background-color: rgb(255 , 255 , 255)&quot;&gt;)&lt;/span&gt;&lt;/div&gt;&lt;div style=&quot;text-align: left&quot;&gt;&lt;span style=&quot;color: rgb(51 , 51 , 51) ; font-family: , &amp;#34;blinkmacsystemfont&amp;#34; , &amp;#34;apple color emoji&amp;#34; , &amp;#34;segoe ui emoji&amp;#34; , &amp;#34;segoe ui symbol&amp;#34; , &amp;#34;segoe ui&amp;#34; , &amp;#34;pingfang sc&amp;#34; , &amp;#34;hiragino sans gb&amp;#34; , &amp;#34;microsoft yahei&amp;#34; , &amp;#34;helvetica neue&amp;#34; , &amp;#34;helvetica&amp;#34; , &amp;#34;arial&amp;#34; , sans-serif ; font-size: 16px ; background-color: rgb(255 , 255 , 255)&quot;&gt;&lt;br&gt;&lt;/span&gt;&lt;/div&gt;&lt;div style=&quot;text-align: left&quot;&gt;&lt;span style=&quot;color: rgb(51 , 51 , 51) ; font-family: , &amp;#34;blinkmacsystemfont&amp;#34; , &amp;#34;apple color emoji&amp;#34; , &amp;#34;segoe ui emoji&amp;#34; , &amp;#34;segoe ui symbol&amp;#34; , &amp;#34;segoe ui&amp;#34; , &amp;#34;pingfang sc&amp;#34; , &amp;#34;hiragino sans gb&amp;#34; , &amp;#34;microsoft yahei&amp;#34; , &amp;#34;helvetica neue&amp;#34; , &amp;#34;helvetica&amp;#34; , &amp;#34;arial&amp;#34; , sans-serif ; font-size: 16px ; background-color: rgb(255 , 255 , 255)&quot;&gt;第二：司机结束任务status=3&lt;/span&gt;&lt;span style=&quot;color: rgb(51 , 51 , 51) ; font-size: 16px ; background-color: rgb(255 , 255 , 255)&quot;&gt;&amp;amp;&amp;amp;&lt;/span&gt;&lt;span style=&quot;text-align: justify ; font-size: 16px&quot;&gt;&lt;font color=&quot;#333333&quot;&gt;is_special=1&lt;/font&gt;&lt;/span&gt;&lt;/div&gt;&lt;div style=&quot;text-align: left&quot;&gt;&lt;span style=&quot;color: rgb(51 , 51 , 51) ; font-family: , &amp;#34;blinkmacsystemfont&amp;#34; , &amp;#34;apple color emoji&amp;#34; , &amp;#34;segoe ui emoji&amp;#34; , &amp;#34;segoe ui symbol&amp;#34; , &amp;#34;segoe ui&amp;#34; , &amp;#34;pingfang sc&amp;#34; , &amp;#34;hiragino sans gb&amp;#34; , &amp;#34;microsoft yahei&amp;#34; , &amp;#34;helvetica neue&amp;#34; , &amp;#34;helvetica&amp;#34; , &amp;#34;arial&amp;#34; , sans-serif ; font-size: 16px ; background-color: rgb(255 , 255 , 255)&quot;&gt;oa：TODO(&lt;/span&gt;&lt;span style=&quot;background-color: rgb(255 , 255 , 255) ; color: rgb(51 , 51 , 51) ; font-size: 16px&quot;&gt;处理左边的第一第二&lt;/span&gt;&lt;span style=&quot;background-color: rgb(255 , 255 , 255) ; color: rgb(51 , 51 , 51) ; font-size: 16px&quot;&gt;)&lt;/span&gt;&lt;/div&gt;&lt;div style=&quot;text-align: left&quot;&gt;&lt;span style=&quot;color: rgb(51 , 51 , 51) ; font-family: , &amp;#34;blinkmacsystemfont&amp;#34; , &amp;#34;apple color emoji&amp;#34; , &amp;#34;segoe ui emoji&amp;#34; , &amp;#34;segoe ui symbol&amp;#34; , &amp;#34;segoe ui&amp;#34; , &amp;#34;pingfang sc&amp;#34; , &amp;#34;hiragino sans gb&amp;#34; , &amp;#34;microsoft yahei&amp;#34; , &amp;#34;helvetica neue&amp;#34; , &amp;#34;helvetica&amp;#34; , &amp;#34;arial&amp;#34; , sans-serif ; font-size: 16px ; background-color: rgb(255 , 255 , 255)&quot;&gt;&lt;br&gt;&lt;/span&gt;&lt;/div&gt;&lt;div style=&quot;text-align: left&quot;&gt;&lt;span style=&quot;color: rgb(51 , 51 , 51) ; font-family: , &amp;#34;blinkmacsystemfont&amp;#34; , &amp;#34;apple color emoji&amp;#34; , &amp;#34;segoe ui emoji&amp;#34; , &amp;#34;segoe ui symbol&amp;#34; , &amp;#34;segoe ui&amp;#34; , &amp;#34;pingfang sc&amp;#34; , &amp;#34;hiragino sans gb&amp;#34; , &amp;#34;microsoft yahei&amp;#34; , &amp;#34;helvetica neue&amp;#34; , &amp;#34;helvetica&amp;#34; , &amp;#34;arial&amp;#34; , sans-serif ; font-size: 16px ; background-color: rgb(255 , 255 , 255)&quot;&gt;第三：车队长取消任务status=4&lt;/span&gt;&lt;span style=&quot;color: rgb(51 , 51 , 51) ; font-size: 16px ; background-color: rgb(255 , 255 , 255)&quot;&gt;&amp;amp;&amp;amp;&lt;/span&gt;&lt;span style=&quot;text-align: justify ; font-size: 16px&quot;&gt;&lt;font color=&quot;#333333&quot;&gt;is_special=1&lt;/font&gt;&lt;/span&gt;&lt;/div&gt;&lt;div style=&quot;text-align: left&quot;&gt;&lt;span style=&quot;color: rgb(51 , 51 , 51) ; font-size: 16px ; background-color: rgb(255 , 255 , 255)&quot;&gt;oa：TODO(&lt;/span&gt;&lt;span style=&quot;background-color: rgb(255 , 255 , 255) ; color: rgb(51 , 51 , 51) ; font-size: 16px&quot;&gt;处理左边的第三&lt;/span&gt;&lt;span style=&quot;background-color: rgb(255 , 255 , 255) ; color: rgb(51 , 51 , 51) ; font-size: 16px&quot;&gt;)&lt;/span&gt;&lt;/div&gt;&lt;div style=&quot;text-align: left&quot;&gt;&lt;span style=&quot;background-color: rgb(255 , 255 , 255) ; color: rgb(51 , 51 , 51) ; font-size: 16px&quot;&gt;&lt;br&gt;&lt;/span&gt;&lt;/div&gt;&lt;div style=&quot;text-align: left&quot;&gt;&lt;span style=&quot;background-color: rgb(255 , 255 , 255) ; color: rgb(51 , 51 , 51) ; font-size: 16px&quot;&gt;TODO之后同时&lt;/span&gt;&lt;span style=&quot;color: rgb(51 , 51 , 51) ; font-size: 16px ; background-color: rgb(255 , 255 , 255)&quot;&gt;设置&lt;/span&gt;&lt;span style=&quot;text-align: justify ; color: rgb(51 , 51 , 51) ; font-size: 16px&quot;&gt;is_special=2&lt;/span&gt;&lt;/div&gt;&lt;div style=&quot;text-align: left&quot;&gt;&lt;span style=&quot;color: rgb(51 , 51 , 51) ; font-family: , &amp;#34;blinkmacsystemfont&amp;#34; , &amp;#34;apple color emoji&amp;#34; , &amp;#34;segoe ui emoji&amp;#34; , &amp;#34;segoe ui symbol&amp;#34; , &amp;#34;segoe ui&amp;#34; , &amp;#34;pingfang sc&amp;#34; , &amp;#34;hiragino sans gb&amp;#34; , &amp;#34;microsoft yahei&amp;#34; , &amp;#34;helvetica neue&amp;#34; , &amp;#34;helvetica&amp;#34; , &amp;#34;arial&amp;#34; , sans-serif ; font-size: 16px ; background-color: rgb(255 , 255 , 255)&quot;&gt;&lt;br&gt;&lt;/span&gt;&lt;/div&gt;&lt;/div&gt;&lt;div style=&quot;text-align: justify&quot;&gt;&lt;/div&gt;" style="rounded=1;whiteSpace=wrap;html=1;" vertex="1" parent="1">
          <mxGeometry x="590" y="600" width="220" height="380" as="geometry" />
        </mxCell>
        <mxCell id="igD-GckAJ0knDN7GTUAc-19" value="是否同意" style="rhombus;whiteSpace=wrap;html=1;" vertex="1" parent="1">
          <mxGeometry x="500" y="400" width="80" height="80" as="geometry" />
        </mxCell>
        <mxCell id="igD-GckAJ0knDN7GTUAc-20" value="" style="endArrow=classic;html=1;" edge="1" parent="1" source="igD-GckAJ0knDN7GTUAc-19">
          <mxGeometry width="50" height="50" relative="1" as="geometry">
            <mxPoint x="390" y="490" as="sourcePoint" />
            <mxPoint x="400" y="500" as="targetPoint" />
            <Array as="points">
              <mxPoint x="400" y="440" />
            </Array>
          </mxGeometry>
        </mxCell>
        <mxCell id="igD-GckAJ0knDN7GTUAc-24" value="同意" style="text;html=1;align=center;verticalAlign=middle;resizable=0;points=[];autosize=1;" vertex="1" parent="1">
          <mxGeometry x="600" y="420" width="40" height="20" as="geometry" />
        </mxCell>
        <mxCell id="igD-GckAJ0knDN7GTUAc-27" value="不同意" style="text;html=1;align=center;verticalAlign=middle;resizable=0;points=[];autosize=1;" vertex="1" parent="1">
          <mxGeometry x="425" y="420" width="50" height="20" as="geometry" />
        </mxCell>
        <mxCell id="igD-GckAJ0knDN7GTUAc-28" value="待商议" style="rounded=1;whiteSpace=wrap;html=1;" vertex="1" parent="1">
          <mxGeometry x="340" y="500" width="120" height="60" as="geometry" />
        </mxCell>
        <mxCell id="igD-GckAJ0knDN7GTUAc-29" value="&lt;div style=&quot;text-align: left ; line-height: 1.75 ; font-size: 14px&quot;&gt;目前car前台系统调用的OA接口&lt;/div&gt;&lt;div style=&quot;text-align: left ; line-height: 1.75 ; font-size: 14px&quot;&gt;第一：司机接收任务&lt;/div&gt;&lt;div style=&quot;text-align: left ; line-height: 1.75 ; font-size: 14px&quot;&gt;$posturl = &#39;https://www.yuexing.com/?mod=yxoacar&amp;amp;act=setCarAndDriver&#39;;&lt;/div&gt;&lt;div style=&quot;text-align: left ; line-height: 1.75 ; font-size: 14px&quot;&gt;$postres = RequestService::curl_post($posturl,[&#39;request_id&#39;=&amp;gt;$taskinfo[&#39;requestid&#39;]]);&lt;/div&gt;&lt;div style=&quot;text-align: left ; line-height: 1.75 ; font-size: 14px&quot;&gt;第二：司机结束任务&lt;/div&gt;&lt;div style=&quot;text-align: left ; line-height: 1.75 ; font-size: 14px&quot;&gt;$posturl = &#39;https://www.yuexing.com/?mod=yxoacar&amp;amp;act=finishTrip&#39;;&lt;/div&gt;&lt;div style=&quot;text-align: left ; line-height: 1.75 ; font-size: 14px&quot;&gt;$postres = RequestService::curl_post($posturl,[&#39;request_id&#39;=&amp;gt;$taskinfo[&#39;requestid&#39;]]);&lt;/div&gt;&lt;div style=&quot;text-align: left ; line-height: 1.75 ; font-size: 14px&quot;&gt;第三：车队长取消任务&lt;/div&gt;&lt;div style=&quot;text-align: left ; line-height: 1.75 ; font-size: 14px&quot;&gt;$posturl = &#39;https://www.yuexing.com/?mod=yxoacar&amp;amp;act=cancelTask&#39;;&lt;/div&gt;&lt;div style=&quot;text-align: left ; line-height: 1.75 ; font-size: 14px&quot;&gt;$postres = RequestService::curl_post($posturl,[&#39;request_id&#39;=&amp;gt;$taskinfo[&#39;requestid&#39;]]);&lt;/div&gt;" style="rounded=1;whiteSpace=wrap;html=1;" vertex="1" parent="1">
          <mxGeometry x="40" y="600" width="530" height="340" as="geometry" />
        </mxCell>
        <mxCell id="igD-GckAJ0knDN7GTUAc-30" value="" style="endArrow=classic;html=1;exitX=1;exitY=0.5;exitDx=0;exitDy=0;entryX=0.455;entryY=0;entryDx=0;entryDy=0;entryPerimeter=0;" edge="1" parent="1" source="igD-GckAJ0knDN7GTUAc-19" target="igD-GckAJ0knDN7GTUAc-13">
          <mxGeometry width="50" height="50" relative="1" as="geometry">
            <mxPoint x="510" y="450" as="sourcePoint" />
            <mxPoint x="410" y="510" as="targetPoint" />
            <Array as="points">
              <mxPoint x="690" y="440" />
              <mxPoint x="690" y="470" />
            </Array>
          </mxGeometry>
        </mxCell>
      </root>
    </mxGraphModel>
  </diagram>
</mxfile>
